Format : Matroska
Format version : Version 2
File size : 894 MiB
Duration : 2h 1mn
Overall bit rate : 1 025 Kbps
Movie name : Twilight Saga 2008

Video
ID : 1
Format : AVC
Format/Info : Advanced Video Codec
Format profile : High@L3.1
Format settings, CABAC : Yes
Format settings, ReFrames : 5 frames
Muxing mode : Header stripping
Codec ID : V_MPEG4/ISO/AVC
Duration : 2h 1mn
Bit rate : 768 Kbps
Width : 1 280 pixels
Height : 528 pixels
Display aspect ratio : 2.40:1
Frame rate : 23.976 fps
Title : Ripped By Henry Kharay
Writing library : x264

Audio #1
ID : 2
Format : MPEG Audio
Codec ID/Hint : MP3
Duration : 2h 1mn
Bit rate mode : Variable
Bit rate : 128 Kbps
Channel(s) : 2 channels
Sampling rate : 48.0 KHz
Stream size : 112 MiB
Title : HeNry[~KSRR~]
Writing library : LAME3.98.4
Language : Hindi

Audio #2
ID : 3
Format : MPEG Audio
Codec ID/Hint : MP3
Duration : 2h 1mn
Bit rate mode : Variable
Bit rate : 128 Kbps
Channel(s) : 2 channels
Sampling rate : 48.0 KHz
Stream size : 112 MiB
Title : HeNry[~KSRR~]
Writing library : LAME3.98.4
Language : English

Screens
 
http://www.postimg.com/57000/photo-56524.jpg
 
http://www.postimg.com/57000/photo-56526.jpg
 
http://www.postimg.com/57000/photo-56528.jpg
 
http://www.postimg.com/57000/photo-56529.jpg
 
http://www.postimg.com/57000/photo-56530.jpg
 
http://www.postimg.com/57000/photo-56531.jpg